# xmcd CD database file
#
# Track frame offsets:
#	150
#	23914
#	42442
#	62871
#	98286
#	121253
#	144581
#
# Disc length: 2479 seconds
#
# Revision: 0
# Processed by: cddbd v1.5.2PL0 Copyright (c) Steve Scherf et al.
# Submitted via: CDex 1.70beta2
#
DISCID=5709ad07
DTITLE=PACHET - D'INVERNO - COMPOSITION PROJECT
DYEAR=2011
DGENRE=Jazz
TTITLE0=Song Bouncy
TTITLE1=I Just Can't Remember(Take 2)
TTITLE2=Very Late
TTITLE3=I Got it Good and that ain't Bad
TTITLE4=May's Dance
TTITLE5=Why Not
TTITLE6=I Just Can't Remember(Take 1)
EXTD=YEAR: 2011
EXTT0=
EXTT1=
EXTT2=
EXTT3=
EXTT4=
EXTT5=
EXTT6=
PLAYORDER=
